# Blender 4.2.10 LTS
# www.blender.org
mtllib Ast1.mtl
o Asteroid_1
v 8.067181 -30.120333 -13.690662
v 19.032803 -26.311008 2.949365
v 28.295509 -21.766413 -16.787138
v -18.933611 -35.981834 8.821760
v -2.692355 16.525623 -23.556892
v 38.485538 2.216442 13.960573
v -1.094919 13.035810 19.084509
v -14.567337 3.820181 22.480062
v -1.752200 -36.668335 13.925941
v 12.019151 -21.708542 32.891251
v 8.030218 -5.016155 32.480553
v -1.775824 -11.337685 31.058405
v 25.274889 -4.384081 28.115082
v 14.140089 13.447283 24.849665
v 18.388050 -24.259653 21.490387
v 3.897771 -34.991425 3.024734
v 43.087132 -7.076851 -18.554050
v 46.752369 7.947592 -5.427401
v 45.961250 15.107994 9.383657
v 36.790638 -8.854771 20.147797
v 9.748035 31.413778 19.729265
v 33.085857 12.085442 22.741428
v -39.033501 -9.149889 13.629547
v -36.639870 -26.632044 -0.918148
v -25.560276 -35.489281 -11.140409
v -15.381485 -37.791080 -11.658931
v -15.364607 -15.079414 33.569702
v -3.326787 -35.120205 -21.875038
v -14.302371 -26.073780 -30.401882
v -31.319159 -27.724169 19.913658
v 18.820374 3.699442 -28.768576
v 29.140392 9.576902 -22.974821
v 30.254835 -7.292225 -28.798018
v -11.723355 -35.250408 25.045332
v -1.378810 -26.951822 32.392166
v -20.673479 -28.997280 31.028347
v -31.975079 2.051638 11.471540
v -34.237389 -11.289989 -33.107677
v -38.005535 7.434823 -12.130715
v -28.093166 -28.744570 -27.312321
v -41.276402 -3.400017 -4.765026
v -27.534325 14.465199 13.188795
v -30.593731 5.695826 -35.432335
v 6.970540 3.977257 -33.074493
v -11.614998 -9.498924 -37.759514
v -15.527644 6.401003 -36.960640
v 17.445957 -13.713505 -35.453186
v -32.806339 23.031019 -3.561633
v -27.161442 26.899673 -28.536339
v -12.332663 27.982719 9.981947
v 19.227343 35.467537 5.262740
v 39.900200 31.724213 2.753250
v 26.186966 23.362576 -7.555279
v 24.828117 27.679085 21.971836
v -24.255596 30.056791 3.219761
v -11.566814 34.642319 -8.509758
v 4.790081 36.679157 -6.394823
v 9.536703 21.592840 -16.306320
v -6.110456 32.986797 -11.623413
vn 0.4318 -0.8765 -0.2127
vn 0.5491 -0.8343 0.0483
vn 0.5480 -0.7913 -0.2712
vn -0.2620 -0.9589 0.1086
vn 0.2399 0.6308 -0.7379
vn 0.8764 -0.1481 0.4583
vn -0.2897 0.3650 0.8848
vn -0.3000 0.4293 0.8519
vn 0.2296 -0.9567 0.1788
vn 0.2913 -0.4119 0.8634
vn -0.0292 0.2575 0.9658
vn -0.0576 0.2565 0.9648
vn 0.4650 -0.0198 0.8851
vn -0.0967 0.2832 0.9542
vn 0.5497 -0.7428 0.3822
vn 0.3260 -0.9453 0.0126
vn 0.8693 -0.2644 -0.4176
vn 0.9662 0.0692 -0.2483
vn 0.9215 0.0947 0.3767
vn 0.8115 -0.3622 0.4586
vn -0.1829 0.6917 0.6987
vn 0.5306 0.1852 0.8271
vn -0.8700 0.1607 0.4660
vn -0.8383 -0.5452 0.0081
vn -0.4056 -0.8994 -0.1632
vn -0.0243 -0.9788 -0.2033
vn -0.2548 0.1479 0.9556
vn 0.1660 -0.8624 -0.4783
vn -0.0737 -0.6069 -0.7914
vn -0.7391 -0.5017 0.4495
vn 0.2736 0.4793 -0.8339
vn 0.4063 0.5224 -0.7497
vn 0.5264 -0.1243 -0.8411
vn -0.0490 -0.8678 0.4944
vn 0.1675 -0.4976 0.8511
vn -0.4312 -0.4797 0.7642
vn -0.7229 0.3613 0.5889
vn -0.6980 -0.1787 -0.6935
vn -0.9527 0.2525 -0.1692
vn -0.4994 -0.6424 -0.5813
vn -0.9979 0.0588 0.0289
vn -0.5904 0.3558 0.7244
vn -0.5999 0.1931 -0.7764
vn 0.2134 0.4415 -0.8715
vn -0.0082 -0.1761 -0.9843
vn 0.0714 0.3016 -0.9508
vn 0.3377 -0.3168 -0.8863
vn -0.8234 0.5529 0.1275
vn -0.3708 0.7049 -0.6046
vn -0.2263 0.7361 0.6379
vn 0.1351 0.9881 -0.0732
vn 0.6141 0.7835 -0.0949
vn 0.3234 0.6609 -0.6772
vn 0.2659 0.5720 0.7759
vn -0.4518 0.8055 0.3834
vn 0.0315 0.9989 0.0339
vn 0.0360 0.9461 -0.3219
vn 0.2451 0.6552 -0.7146
vn 0.1301 0.8969 -0.4227
vt 0.606414 0.275819
vt 0.713715 0.440436
vt 0.549866 0.572455
vt 0.355449 0.386309
vt 0.871746 0.643201
vt 0.656452 0.658757
vt 0.587098 0.448354
vt 0.782830 0.455486
vt 0.574097 0.552768
vt 0.464460 0.694625
vt 0.603173 0.751889
vt 0.708815 0.549677
vt 0.704017 0.255569
vt 0.711319 0.465719
vt 0.913269 0.270555
vt 0.241614 0.643201
vt 0.341074 0.531594
vt 0.393526 0.678347
vt 0.553634 0.467172
vt 0.509413 0.203398
vt 0.273413 0.190611
vt 0.344739 0.401153
vt 0.475596 0.376613
vt 0.479932 0.199154
vt 0.632128 0.258562
vt 0.710550 0.426399
vt 0.270555 0.405473
vt 0.561582 0.597778
vt 0.474940 0.341431
vt 0.539117 0.464526
vt 0.261168 0.175757
vt 0.362287 0.105597
vt 0.321260 0.333753
vt 0.777879 0.820949
vt 0.704017 0.230477
vt 0.913269 0.405473
vt 0.825878 0.616584
vt 0.792174 0.772154
vt 0.693222 0.351383
vt 0.362548 0.399112
vt 0.318592 0.580086
vt 0.405824 0.841707
vt 0.342616 0.647510
vt 0.435764 0.595771
vt 0.508718 0.726246
vt 0.140256 0.190611
vt 0.051997 0.401153
vt 0.637316 0.591188
vt 0.539916 0.768171
vt 0.823718 0.812560
vt 0.901954 0.571678
vt 1.017481 0.678347
vt 0.948039 0.867327
vt 0.362287 0.215635
vt 0.280110 0.398892
vt 0.369115 0.529030
vt 0.261168 0.147728
vt 0.140256 0.273413
vt 0.319912 0.631127
vt 0.809392 0.179604
vt 0.625273 0.103066
vt 0.479932 0.132426
vt 0.632128 0.126676
vt 0.131842 0.529030
vt 0.329918 0.549312
vt 0.182303 0.670631
vt 0.875448 0.378369
vt 0.839056 0.424462
vt 0.792174 0.585126
vt 0.603173 0.684232
vt 0.586868 0.655244
vt 0.816973 0.690524
vt 0.456900 0.748237
vt 0.693222 0.903282
vt 0.349387 0.670631
vt 0.463219 0.848227
vt 0.219955 0.848227
vt 0.355449 0.824562
vt 0.777879 0.250569
vt 0.483115 0.654225
vt 0.948039 0.468873
vt 0.606414 0.863484
vt 0.426241 0.631385
vt 0.364521 0.596755
vt 0.219955 0.463219
vt 0.187209 0.823718
vt 0.175529 0.809392
vt 0.331957 0.844883
vt 0.204696 0.625273
vt 0.331957 0.210026
vt 0.456900 0.107117
vt 0.985151 0.710550
vt 1.026274 0.597778
vt 0.468873 0.867327
vt 0.985151 0.426399
vt 0.816973 0.258837
vt 0.839056 0.827420
vt 0.147390 0.571678
vt 0.105664 0.378369
vt 0.122481 0.539916
vt 0.175529 0.179604
vt 0.187209 0.812560
vt 0.426241 0.881034
vt 0.549866 0.922793
vt 0.079372 0.509413
s 1
usemtl Asteroid_Material_Pixelated.004
f 21/1/21 51/2/51 57/3/57 50/4/50
f 22/5/22 14/6/14 11/7/11 13/8/13
f 44/9/44 5/10/5 58/11/58 31/12/31
f 15/13/15 2/14/2 20/15/20
f 22/16/22 6/17/6 19/18/19
f 41/19/41 24/20/24 30/21/30 23/22/23
f 11/7/11 12/23/12 35/24/35 10/25/10
f 17/26/17 6/17/6 20/27/20
f 18/28/18 6/17/6 17/26/17
f 18/28/18 19/18/19 6/17/6
f 15/13/15 9/29/9 16/30/16 2/14/2
f 36/31/36 34/32/34 35/24/35 27/33/27
f 22/5/22 54/34/54 14/6/14
f 15/35/15 20/36/20 13/8/13 10/25/10
f 32/37/32 31/12/31 58/11/58 53/38/53
f 44/9/44 47/39/47 45/40/45 46/41/46
f 22/42/22 13/43/13 20/44/20 6/45/6
f 27/33/27 35/24/35 12/23/12
f 30/46/30 36/31/36 27/33/27 23/47/23
f 39/48/39 48/49/48 49/50/49 43/51/43
f 19/52/19 52/53/52 54/34/54 22/5/22
f 34/54/34 4/55/4 9/29/9
f 41/19/41 23/22/23 37/56/37
f 4/55/4 34/54/34 36/57/36 30/58/30
f 4/55/4 26/59/26 16/30/16 9/29/9
f 24/20/24 40/60/40 25/61/25
f 35/62/35 9/29/9 15/13/15 10/63/10
f 39/48/39 41/19/41 48/49/48
f 37/64/37 8/65/8 42/66/42
f 41/19/41 38/67/38 40/60/40 24/20/24
f 38/67/38 41/19/41 39/48/39 43/51/43
f 32/37/32 33/68/33 47/39/47 31/12/31
f 46/41/46 5/10/5 44/9/44
f 53/69/53 58/70/58 57/3/57 51/2/51
f 31/12/31 47/39/47 44/9/44
f 2/14/2 16/30/16 1/71/1 3/72/3
f 1/71/1 28/73/28 47/74/47
f 48/49/48 42/75/42 55/76/55
f 55/77/55 42/66/42 50/78/50
f 54/79/54 51/2/51 21/1/21
f 12/23/12 11/7/11 7/80/7 8/65/8
f 52/81/52 53/69/53 51/2/51
f 21/82/21 14/6/14 54/34/54
f 59/83/59 56/84/56 50/4/50
f 27/33/27 8/65/8 37/64/37 23/47/23
f 55/85/55 50/4/50 56/84/56
f 56/84/56 59/83/59 49/86/49
f 10/25/10 13/8/13 11/7/11
f 40/87/40 29/88/29 26/59/26 25/89/25
f 11/7/11 14/6/14 7/80/7
f 29/90/29 45/40/45 47/39/47 28/91/28
f 3/72/3 17/92/17 20/15/20 2/14/2
f 52/53/52 18/93/18 32/37/32 53/38/53
f 19/18/19 18/28/18 52/94/52
f 17/95/17 3/96/3 33/68/33
f 26/59/26 29/88/29 28/73/28
f 26/59/26 4/55/4 25/89/25
f 26/59/26 28/73/28 1/71/1 16/30/16
f 33/97/33 3/72/3 1/71/1 47/74/47
f 43/98/43 46/41/46 45/40/45 38/99/38
f 33/68/33 32/37/32 18/93/18 17/95/17
f 27/33/27 12/23/12 8/65/8
f 35/62/35 34/54/34 9/29/9
f 37/56/37 42/75/42 48/49/48 41/19/41
f 55/85/55 56/84/56 49/86/49 48/100/48
f 40/101/40 38/99/38 45/40/45 29/90/29
f 46/41/46 43/98/43 49/102/49
f 5/10/5 59/103/59 57/104/57 58/11/58
f 14/6/14 21/82/21 50/78/50 7/80/7
f 54/79/54 52/81/52 51/2/51
f 57/3/57 59/83/59 50/4/50
f 24/105/24 25/89/25 4/55/4 30/58/30
f 49/102/49 59/103/59 46/41/46
f 59/103/59 5/10/5 46/41/46
f 7/80/7 50/78/50 42/66/42 8/65/8
