# Blender 4.2.10 LTS
# www.blender.org
mtllib Ast2.mtl
o Asteroid_2
v 22.259212 -26.977573 -101.878868
v 25.358551 -22.988211 -83.586082
v 37.066238 -16.134596 -107.928894
v -11.164113 -37.288841 -76.262558
v 8.777129 15.261387 -106.960144
v 43.299477 -0.885142 -73.944275
v 1.047441 3.618331 -57.939674
v -10.581882 -4.603653 -58.986351
v 7.667151 -32.508022 -71.688347
v 22.878700 -25.145119 -45.529472
v 15.678554 -16.485573 -47.658859
v 5.139075 -21.889297 -51.178848
v 30.596512 -9.818932 -55.266003
v 15.912619 6.376588 -53.938698
v 23.839516 -23.465893 -59.294235
v 13.351962 -33.160625 -83.380684
v 48.066414 -5.410262 -111.680679
v 50.814678 5.769865 -98.902725
v 45.007027 11.234911 -80.124512
v 41.761536 -9.813750 -68.097992
v 12.007339 23.565020 -57.113132
v 34.579018 4.283590 -64.979088
v -33.721546 -13.918946 -71.913101
v -25.136673 -34.326256 -82.876945
v -12.534605 -36.757046 -95.968384
v -1.706450 -38.957508 -101.047874
v -11.329319 -23.674633 -50.435799
v 12.849104 -32.273502 -114.217255
v 1.438533 -25.616871 -118.481537
v -26.845654 -34.211121 -64.289795
v 26.604961 8.033176 -124.248627
v 34.278782 12.697073 -119.766327
v 34.085884 -3.647255 -124.974213
v -2.905281 -41.947117 -58.918213
v 11.078436 -33.065575 -50.519119
v -16.083563 -38.685162 -54.232895
v -25.041370 -5.104915 -71.700058
v -18.051924 -13.916004 -113.972321
v -26.953766 0.832234 -93.378464
v -11.812996 -28.928078 -112.114517
v -29.338223 -6.878218 -85.722122
v -19.234858 4.577527 -67.246307
v -19.736431 1.430532 -115.235779
v 18.194656 9.050190 -125.403397
v 3.288728 -7.984335 -125.377167
v -0.927750 7.013982 -118.947525
v 23.857456 -8.795862 -127.252060
v -24.833069 13.043636 -85.634392
v -17.594948 19.161377 -104.552620
v -8.900657 17.603779 -69.303009
v 19.470997 31.941181 -74.501381
v 36.646534 23.891750 -86.242500
v 29.666161 20.073126 -99.514084
v 26.747309 21.946289 -59.647278
v -16.569191 18.048264 -76.846329
v -4.900805 27.449499 -84.510391
v 7.776591 33.518585 -83.176170
v 17.858341 21.253115 -102.429108
v 0.222697 28.568590 -88.454994
vn 0.5877 -0.7983 -0.1316
vn 0.6064 -0.7926 0.0632
vn 0.5567 -0.7848 -0.2724
vn -0.0489 -0.9970 -0.0605
vn -0.0923 0.8433 -0.5295
vn 0.9096 0.0603 0.4112
vn -0.3679 0.2654 0.8912
vn -0.4114 0.3335 0.8482
vn 0.4290 -0.9030 -0.0225
vn 0.4329 -0.3921 0.8117
vn -0.0615 0.2098 0.9758
vn -0.1629 0.1314 0.9779
vn 0.6881 0.0244 0.7252
vn 0.0446 0.2306 0.9720
vn 0.6657 -0.7386 0.1062
vn 0.4309 -0.8983 0.0863
vn 0.8548 -0.3115 -0.4150
vn 0.9698 0.2174 -0.1101
vn 0.8769 0.3305 0.3490
vn 0.8808 -0.3166 0.3522
vn -0.1745 0.5991 0.7814
vn 0.6817 0.2657 0.6816
vn -0.9509 0.1624 0.2635
vn -0.6873 -0.6935 -0.2161
vn -0.3433 -0.9022 -0.2610
vn 0.0338 -0.9678 -0.2494
vn -0.3107 0.0860 0.9466
vn 0.3045 -0.7869 -0.5366
vn -0.2161 -0.5243 -0.8237
vn -0.7790 -0.5562 0.2895
vn 0.1165 0.5222 -0.8448
vn 0.4059 0.6756 -0.6155
vn 0.5184 -0.1674 -0.8386
vn 0.1335 -0.9582 0.2529
vn 0.2894 -0.7048 0.6477
vn -0.4465 -0.6603 0.6039
vn -0.7675 0.3890 0.5095
vn -0.7184 -0.1667 -0.6753
vn -0.9611 0.1251 -0.2462
vn -0.5301 -0.5581 -0.6384
vn -0.9928 0.0614 -0.1032
vn -0.6726 0.3252 0.6647
vn -0.6932 0.2024 -0.6918
vn -0.1145 0.5776 -0.8083
vn -0.2382 -0.0977 -0.9663
vn -0.2363 0.5168 -0.8228
vn 0.2146 -0.3122 -0.9255
vn -0.8569 0.5075 0.0902
vn -0.5189 0.7287 -0.4470
vn -0.4447 0.6300 0.6367
vn 0.1512 0.9773 0.1486
vn 0.5962 0.8026 -0.0195
vn 0.3081 0.8784 -0.3655
vn 0.5009 0.5111 0.6985
vn -0.6058 0.7042 0.3703
vn -0.1740 0.9442 0.2796
vn -0.2070 0.9724 -0.1078
vn 0.0188 0.8775 -0.4791
vn -0.2668 0.9280 -0.2602
vt 0.606414 0.275819
vt 0.713715 0.440436
vt 0.549866 0.572455
vt 0.355449 0.386309
vt 0.871746 0.643201
vt 0.656452 0.658757
vt 0.587098 0.448354
vt 0.782830 0.455486
vt 0.574097 0.552768
vt 0.464460 0.694625
vt 0.603173 0.751889
vt 0.708815 0.549677
vt 0.704017 0.255569
vt 0.711319 0.465719
vt 0.913269 0.270555
vt 0.241614 0.643201
vt 0.341074 0.531594
vt 0.393526 0.678347
vt 0.553634 0.467172
vt 0.509413 0.203398
vt 0.273413 0.190611
vt 0.344739 0.401153
vt 0.475596 0.376613
vt 0.479932 0.199154
vt 0.632128 0.258562
vt 0.710550 0.426399
vt 0.270555 0.405473
vt 0.561582 0.597778
vt 0.474940 0.341431
vt 0.539117 0.464526
vt 0.261168 0.175757
vt 0.362287 0.105597
vt 0.321260 0.333753
vt 0.777879 0.820949
vt 0.704017 0.230477
vt 0.913269 0.405473
vt 0.825878 0.616584
vt 0.792174 0.772154
vt 0.693222 0.351383
vt 0.362548 0.399112
vt 0.318592 0.580086
vt 0.405824 0.841707
vt 0.342616 0.647510
vt 0.435764 0.595771
vt 0.508718 0.726246
vt 0.140256 0.190611
vt 0.051997 0.401153
vt 0.637316 0.591188
vt 0.539916 0.768171
vt 0.823718 0.812560
vt 0.901954 0.571678
vt 1.017481 0.678347
vt 0.948039 0.867327
vt 0.362287 0.215635
vt 0.280110 0.398892
vt 0.369115 0.529030
vt 0.261168 0.147728
vt 0.140256 0.273413
vt 0.319912 0.631127
vt 0.809392 0.179604
vt 0.625273 0.103066
vt 0.479932 0.132426
vt 0.632128 0.126676
vt 0.131842 0.529030
vt 0.329918 0.549312
vt 0.182303 0.670631
vt 0.875448 0.378369
vt 0.839056 0.424462
vt 0.792174 0.585126
vt 0.603173 0.684232
vt 0.586868 0.655244
vt 0.816973 0.690524
vt 0.456900 0.748237
vt 0.693222 0.903282
vt 0.349387 0.670631
vt 0.463219 0.848227
vt 0.219955 0.848227
vt 0.355449 0.824562
vt 0.777879 0.250569
vt 0.483115 0.654225
vt 0.948039 0.468873
vt 0.606414 0.863484
vt 0.426241 0.631385
vt 0.364521 0.596755
vt 0.219955 0.463219
vt 0.187209 0.823718
vt 0.175529 0.809392
vt 0.331957 0.844883
vt 0.204696 0.625273
vt 0.331957 0.210026
vt 0.456900 0.107117
vt 0.985151 0.710550
vt 1.026274 0.597778
vt 0.468873 0.867327
vt 0.985151 0.426399
vt 0.816973 0.258837
vt 0.839056 0.827420
vt 0.147390 0.571678
vt 0.105664 0.378369
vt 0.122481 0.539916
vt 0.175529 0.179604
vt 0.187209 0.812560
vt 0.426241 0.881034
vt 0.549866 0.922793
vt 0.079372 0.509413
s 1
usemtl Asteroid_Material_Pixelated.001
f 21/1/21 51/2/51 57/3/57 50/4/50
f 22/5/22 14/6/14 11/7/11 13/8/13
f 44/9/44 5/10/5 58/11/58 31/12/31
f 15/13/15 2/14/2 20/15/20
f 22/16/22 6/17/6 19/18/19
f 41/19/41 24/20/24 30/21/30 23/22/23
f 11/7/11 12/23/12 35/24/35 10/25/10
f 17/26/17 6/17/6 20/27/20
f 18/28/18 6/17/6 17/26/17
f 18/28/18 19/18/19 6/17/6
f 15/13/15 9/29/9 16/30/16 2/14/2
f 36/31/36 34/32/34 35/24/35 27/33/27
f 22/5/22 54/34/54 14/6/14
f 15/35/15 20/36/20 13/8/13 10/25/10
f 32/37/32 31/12/31 58/11/58 53/38/53
f 44/9/44 47/39/47 45/40/45 46/41/46
f 22/42/22 13/43/13 20/44/20 6/45/6
f 27/33/27 35/24/35 12/23/12
f 30/46/30 36/31/36 27/33/27 23/47/23
f 39/48/39 48/49/48 49/50/49 43/51/43
f 19/52/19 52/53/52 54/34/54 22/5/22
f 34/54/34 4/55/4 9/29/9
f 41/19/41 23/22/23 37/56/37
f 4/55/4 34/54/34 36/57/36 30/58/30
f 4/55/4 26/59/26 16/30/16 9/29/9
f 24/20/24 40/60/40 25/61/25
f 35/62/35 9/29/9 15/13/15 10/63/10
f 39/48/39 41/19/41 48/49/48
f 37/64/37 8/65/8 42/66/42
f 41/19/41 38/67/38 40/60/40 24/20/24
f 38/67/38 41/19/41 39/48/39 43/51/43
f 32/37/32 33/68/33 47/39/47 31/12/31
f 46/41/46 5/10/5 44/9/44
f 53/69/53 58/70/58 57/3/57 51/2/51
f 31/12/31 47/39/47 44/9/44
f 2/14/2 16/30/16 1/71/1 3/72/3
f 1/71/1 28/73/28 47/74/47
f 48/49/48 42/75/42 55/76/55
f 55/77/55 42/66/42 50/78/50
f 54/79/54 51/2/51 21/1/21
f 12/23/12 11/7/11 7/80/7 8/65/8
f 52/81/52 53/69/53 51/2/51
f 21/82/21 14/6/14 54/34/54
f 59/83/59 56/84/56 50/4/50
f 27/33/27 8/65/8 37/64/37 23/47/23
f 55/85/55 50/4/50 56/84/56
f 56/84/56 59/83/59 49/86/49
f 10/25/10 13/8/13 11/7/11
f 40/87/40 29/88/29 26/59/26 25/89/25
f 11/7/11 14/6/14 7/80/7
f 29/90/29 45/40/45 47/39/47 28/91/28
f 3/72/3 17/92/17 20/15/20 2/14/2
f 52/53/52 18/93/18 32/37/32 53/38/53
f 19/18/19 18/28/18 52/94/52
f 17/95/17 3/96/3 33/68/33
f 26/59/26 29/88/29 28/73/28
f 26/59/26 4/55/4 25/89/25
f 26/59/26 28/73/28 1/71/1 16/30/16
f 33/97/33 3/72/3 1/71/1 47/74/47
f 43/98/43 46/41/46 45/40/45 38/99/38
f 33/68/33 32/37/32 18/93/18 17/95/17
f 27/33/27 12/23/12 8/65/8
f 35/62/35 34/54/34 9/29/9
f 37/56/37 42/75/42 48/49/48 41/19/41
f 55/85/55 56/84/56 49/86/49 48/100/48
f 40/101/40 38/99/38 45/40/45 29/90/29
f 46/41/46 43/98/43 49/102/49
f 5/10/5 59/103/59 57/104/57 58/11/58
f 14/6/14 21/82/21 50/78/50 7/80/7
f 54/79/54 52/81/52 51/2/51
f 57/3/57 59/83/59 50/4/50
f 24/105/24 25/89/25 4/55/4 30/58/30
f 49/102/49 59/103/59 46/41/46
f 59/103/59 5/10/5 46/41/46
f 7/80/7 50/78/50 42/66/42 8/65/8
