# Blender 4.2.10 LTS
# www.blender.org
mtllib Ast5.mtl
o Asteroid_2.003
v 21.780991 -33.508430 196.868118
v 31.410652 -33.349422 217.015701
v 37.331284 -30.732435 199.904007
v -14.079161 -41.046101 207.733063
v 8.530674 14.108316 182.330261
v 48.231358 -2.196189 229.211060
v 7.067153 12.409056 228.970062
v -12.110165 1.617867 232.502335
v 7.586212 -40.504227 219.153656
v 20.390526 -24.516224 239.218292
v 11.179214 -6.198630 243.015778
v 0.247570 -12.568678 241.421005
v 34.295204 -6.537579 237.906921
v 22.496025 14.975809 231.323288
v 27.049755 -30.110518 230.774719
v 13.293447 -40.403217 213.195389
v 48.659618 -17.595703 192.830048
v 53.440052 0.418919 208.090607
v 56.234329 14.079451 225.674164
v 47.373512 -14.325306 234.904465
v 19.372137 34.020428 226.219177
v 42.208408 11.610325 235.761459
v -35.002113 -16.419857 215.716324
v -35.179161 -31.930929 198.085785
v -18.212662 -42.482201 190.377502
v -6.585480 -42.848701 195.333893
v -10.818256 -16.055904 241.447968
v 6.906269 -37.070553 187.858887
v -5.289176 -30.282610 180.405670
v -31.318214 -30.632624 218.524353
v 30.887028 2.647138 183.119171
v 39.976612 6.594387 189.766113
v 39.681721 -15.240583 182.444519
v -9.042883 -36.854416 224.432480
v 2.755035 -28.916986 237.789337
v -18.111860 -29.099226 233.260071
v -27.651007 -4.904822 213.898163
v -22.542732 -24.412067 169.953583
v -28.551041 -0.499315 190.718491
v -17.851126 -39.109615 176.022583
v -35.978321 -10.653563 197.802948
v -23.560827 11.743172 219.063141
v -20.639580 -5.041121 169.598175
v 18.861416 3.777361 177.060211
v -3.500146 -15.133392 169.457077
v -7.566872 -0.239683 166.213852
v 25.416649 -17.433681 177.025574
v -25.140095 21.766069 199.075150
v -17.532892 22.078205 174.252853
v -2.664914 28.284626 220.278900
v 26.488152 37.349766 209.596893
v 49.119068 32.993431 212.503479
v 39.188534 24.147543 201.145111
v 31.764587 31.304178 227.502533
v -15.638985 28.200783 208.423264
v 1.672571 37.366596 197.915024
v 18.585157 40.053677 201.917297
v 25.471092 21.755192 190.796082
v 8.156010 36.393299 197.041901
vn 0.3519 -0.8688 -0.3483
vn 0.4940 -0.8598 0.1291
vn 0.5242 -0.8188 -0.2343
vn -0.2339 -0.9525 0.1948
vn 0.2677 0.5465 -0.7935
vn 0.8422 -0.1279 0.5237
vn -0.2503 0.4351 0.8649
vn -0.4583 0.4050 0.7911
vn 0.0729 -0.9414 0.3293
vn 0.1577 -0.4510 0.8785
vn -0.0501 0.1966 0.9792
vn -0.0851 0.1136 0.9899
vn 0.2700 0.0087 0.9628
vn -0.1280 0.3416 0.9311
vn 0.3273 -0.7493 0.5757
vn 0.2378 -0.9698 0.0543
vn 0.8547 -0.3526 -0.3810
vn 0.9736 -0.0747 -0.2156
vn 0.9036 0.1678 0.3941
vn 0.7387 -0.3321 0.5865
vn -0.1179 0.7290 0.6743
vn 0.3330 0.2855 0.8987
vn -0.9058 0.1580 0.3931
vn -0.8514 -0.5161 -0.0938
vn -0.1701 -0.9720 -0.1618
vn 0.1437 -0.9717 -0.1873
vn -0.3727 -0.0030 0.9279
vn 0.2421 -0.8114 -0.5319
vn 0.2588 -0.6372 -0.7259
vn -0.7497 -0.5127 0.4185
vn 0.3996 0.3292 -0.8555
vn 0.6109 0.3291 -0.7200
vn 0.5668 -0.2287 -0.7915
vn -0.1871 -0.8625 0.4701
vn -0.0103 -0.6004 0.7997
vn -0.4910 -0.5138 0.7035
vn -0.8437 0.3133 0.4360
vn -0.4669 -0.2340 -0.8528
vn -0.8827 0.2261 -0.4120
vn -0.1594 -0.7166 -0.6790
vn -0.9835 0.1232 -0.1325
vn -0.7254 0.3531 0.5909
vn -0.5946 0.1041 -0.7973
vn 0.3288 0.3302 -0.8848
vn 0.1860 -0.2537 -0.9492
vn 0.0832 0.1872 -0.9788
vn 0.3687 -0.3463 -0.8626
vn -0.8252 0.5645 -0.0186
vn -0.3786 0.6079 -0.6979
vn -0.3205 0.7091 0.6280
vn 0.1786 0.9758 -0.1264
vn 0.6694 0.7356 -0.1044
vn 0.5426 0.4958 -0.6781
vn 0.1606 0.6853 0.7103
vn -0.5458 0.7968 0.2592
vn -0.0845 0.9944 -0.0631
vn 0.0521 0.9430 -0.3287
vn 0.3456 0.5537 -0.7576
vn 0.0548 0.9061 -0.4196
vt 0.000210 0.585733
vt 0.093928 0.570327
vt 0.120419 0.668519
vt 0.000210 0.718270
vt 0.111658 0.400733
vt 0.100040 0.297051
vt 0.200334 0.259544
vt 0.200622 0.354211
vt 0.536530 0.241350
vt 0.455518 0.210589
vt 0.448534 0.282786
vt 0.556896 0.303216
vt 0.428939 0.579122
vt 0.530511 0.582689
vt 0.443222 0.478735
vt 0.784258 0.659746
vt 0.800486 0.589336
vt 0.856810 0.639352
vt 0.839447 0.168620
vt 0.838267 0.039354
vt 0.726567 0.015418
vt 0.744710 0.121319
vt 0.232856 0.204325
vt 0.318645 0.203035
vt 0.292855 0.277673
vt 0.932649 0.458915
vt 0.741297 0.552263
vt 0.909323 0.566161
vt 0.462613 0.692470
vt 0.524128 0.665678
vt 0.325773 0.096935
vt 0.361586 0.144433
vt 0.250613 0.128969
vt 0.024022 0.358788
vt 0.307790 0.311857
vt 0.227263 0.416254
vt 0.542410 0.366756
vt 0.465729 0.373037
vt 0.646404 0.268132
vt 0.577851 0.121921
vt 0.487982 0.127033
vt 0.180667 0.569097
vt 0.199537 0.472208
vt 0.251038 0.472208
vt 0.251242 0.544460
vt 0.316294 0.038822
vt 0.212928 0.000210
vt 0.870026 0.234148
vt 0.810155 0.311279
vt 0.942287 0.353914
vt 0.997837 0.244830
vt 0.097463 0.471787
vt 0.004868 0.441853
vt 0.398159 0.742544
vt 0.483747 0.788347
vt 0.746684 0.184209
vt 0.362007 0.789009
vt 0.418529 0.851547
vt 0.597064 0.776989
vt 0.983273 0.050661
vt 0.901159 0.000210
vt 0.362007 0.683014
vt 0.364368 0.609437
vt 0.152690 0.041210
vt 0.146672 0.137260
vt 0.085265 0.068281
vt 0.999790 0.150542
vt 0.633109 0.345845
vt 0.173214 0.563798
vt 0.180247 0.666707
vt 0.617695 0.649086
vt 0.642466 0.539329
vt 0.658150 0.714888
vt 0.740876 0.606172
vt 0.726567 0.250318
vt 0.767491 0.343702
vt 0.000210 0.089852
vt 0.014223 0.154839
vt 0.022434 0.504965
vt 0.098924 0.213249
vt 0.152143 0.472208
vt 0.000210 0.276788
vt 0.122410 0.734683
vt 0.095071 0.755241
vt 0.007844 0.793186
vt 0.160939 0.877880
vt 0.678147 0.852616
vt 0.700535 0.778390
vt 0.590356 0.832344
vt 0.660994 0.081196
vt 0.726146 0.124510
vt 0.657794 0.458915
vt 0.443626 0.458495
vt 0.579275 0.456785
vt 0.932649 0.701946
vt 0.652748 0.413678
vt 0.706597 0.312352
vt 0.709217 0.533298
vt 0.467805 0.046679
vt 0.551335 0.000210
vt 0.022789 0.851242
vt 0.653074 0.004580
vt 0.362007 0.098953
vt 0.363941 0.219117
vt 0.362007 0.282157
vt 0.530266 0.888862
s 1
usemtl Asteroid_Material_Pixelated.005
f 21/1/21 51/2/51 57/3/57 50/4/50
f 22/5/22 14/6/14 11/7/11 13/8/13
f 44/9/44 5/10/5 58/11/58 31/12/31
f 15/13/15 2/14/2 20/15/20
f 22/16/22 6/17/6 19/18/19
f 41/19/41 24/20/24 30/21/30 23/22/23
f 11/7/11 12/23/12 35/24/35 10/25/10
f 17/26/17 6/17/6 20/27/20
f 18/28/18 6/17/6 17/26/17
f 18/28/18 19/18/19 6/17/6
f 15/13/15 9/29/9 16/30/16 2/14/2
f 36/31/36 34/32/34 35/24/35 27/33/27
f 22/5/22 54/34/54 14/6/14
f 15/35/15 20/36/20 13/8/13 10/25/10
f 32/37/32 31/12/31 58/11/58 53/38/53
f 44/9/44 47/39/47 45/40/45 46/41/46
f 22/42/22 13/43/13 20/44/20 6/45/6
f 27/33/27 35/24/35 12/23/12
f 30/46/30 36/31/36 27/33/27 23/47/23
f 39/48/39 48/49/48 49/50/49 43/51/43
f 19/52/19 52/53/52 54/34/54 22/5/22
f 34/54/34 4/55/4 9/29/9
f 41/19/41 23/22/23 37/56/37
f 4/55/4 34/54/34 36/57/36 30/58/30
f 4/55/4 26/59/26 16/30/16 9/29/9
f 24/20/24 40/60/40 25/61/25
f 35/62/35 9/29/9 15/13/15 10/63/10
f 39/48/39 41/19/41 48/49/48
f 37/64/37 8/65/8 42/66/42
f 41/19/41 38/67/38 40/60/40 24/20/24
f 38/67/38 41/19/41 39/48/39 43/51/43
f 32/37/32 33/68/33 47/39/47 31/12/31
f 46/41/46 5/10/5 44/9/44
f 53/69/53 58/70/58 57/3/57 51/2/51
f 31/12/31 47/39/47 44/9/44
f 2/14/2 16/30/16 1/71/1 3/72/3
f 1/71/1 28/73/28 47/74/47
f 48/49/48 42/75/42 55/76/55
f 55/77/55 42/66/42 50/78/50
f 54/79/54 51/2/51 21/1/21
f 12/23/12 11/7/11 7/80/7 8/65/8
f 52/81/52 53/69/53 51/2/51
f 21/82/21 14/6/14 54/34/54
f 59/83/59 56/84/56 50/4/50
f 27/33/27 8/65/8 37/64/37 23/47/23
f 55/85/55 50/4/50 56/84/56
f 56/84/56 59/83/59 49/86/49
f 10/25/10 13/8/13 11/7/11
f 40/87/40 29/88/29 26/59/26 25/89/25
f 11/7/11 14/6/14 7/80/7
f 29/90/29 45/40/45 47/39/47 28/91/28
f 3/72/3 17/92/17 20/15/20 2/14/2
f 52/93/52 18/94/18 32/37/32 53/38/53
f 19/18/19 18/28/18 52/95/52
f 17/96/17 3/97/3 33/68/33
f 26/59/26 29/88/29 28/73/28
f 26/59/26 4/55/4 25/89/25
f 26/59/26 28/73/28 1/71/1 16/30/16
f 33/98/33 3/72/3 1/71/1 47/74/47
f 43/99/43 46/41/46 45/40/45 38/100/38
f 33/68/33 32/37/32 18/94/18 17/96/17
f 27/33/27 12/23/12 8/65/8
f 35/62/35 34/54/34 9/29/9
f 37/56/37 42/75/42 48/49/48 41/19/41
f 55/85/55 56/84/56 49/86/49 48/101/48
f 40/102/40 38/100/38 45/40/45 29/90/29
f 46/41/46 43/99/43 49/103/49
f 5/10/5 59/104/59 57/105/57 58/11/58
f 14/6/14 21/82/21 50/78/50 7/80/7
f 54/79/54 52/81/52 51/2/51
f 57/3/57 59/83/59 50/4/50
f 24/106/24 25/89/25 4/55/4 30/58/30
f 49/103/49 59/104/59 46/41/46
f 59/104/59 5/10/5 46/41/46
f 7/80/7 50/78/50 42/66/42 8/65/8
