# Blender 4.2.10 LTS
# www.blender.org
mtllib Ast6.mtl
o Asteroid_2.004
v 3.402325 -53.481445 373.134033
v 64.116852 -22.485634 396.246796
v -5.188288 -43.080330 406.245697
v -5.191626 -62.805939 339.988525
v 85.521439 -60.223152 338.460602
v 47.164513 -50.021370 394.232056
v 8.288036 37.519524 392.481720
v -24.599936 -87.525299 279.548279
v -42.729084 -16.225000 415.247986
v -38.317043 -69.676323 266.660034
v -76.025604 -50.308273 362.329071
v 78.654327 -54.096779 313.780426
v -58.026951 -60.499374 266.985352
v -53.623695 -73.764885 286.573669
v -82.683197 -8.527337 330.735565
v 11.018180 -54.025856 260.508728
v 52.501049 -57.475853 279.511536
v -52.754539 9.028303 284.997833
v -52.966499 38.824692 384.797729
v 43.261536 41.370346 367.007904
v 50.015900 -20.676811 318.286011
v 24.151257 37.889900 393.698151
v -4.822761 38.918503 355.318787
v 31.665209 -35.352539 404.819977
v -31.692226 -29.302763 413.897888
v -26.893375 -41.243118 408.031586
v -19.433628 -57.152557 376.696960
v -86.121582 -49.461876 328.663544
v -87.145355 -11.665828 369.193451
v 41.442833 10.082773 403.805084
v -34.672741 -57.409409 373.081848
v -64.118225 -26.281475 287.193146
v -75.443237 10.033394 387.394318
v 68.608627 6.545063 394.564240
v 83.817169 0.405437 366.338715
v -33.291042 -86.775856 268.937439
v -38.958981 24.232225 391.302612
v 83.787354 -35.328293 348.015137
v 8.484653 -76.200089 268.171753
v 56.486019 -74.755867 310.468658
v -75.033463 -46.459221 289.930084
v -79.440201 47.070580 372.816956
v -49.170055 36.022697 323.584595
v -21.925241 -51.196335 392.225067
v -90.330597 -26.575903 359.605133
v -54.096436 -48.081879 385.567535
v -80.749176 16.013977 338.990295
v -45.516228 45.443703 366.393768
v -72.769745 21.952284 315.833069
v 52.755901 40.066933 379.502319
v 73.845657 -70.727745 327.606659
v -44.645527 -38.358521 405.528564
v -0.516302 -35.431141 257.453613
v 16.180466 -40.534550 400.871521
v 87.233383 -15.259882 376.900482
v 11.447767 27.332750 403.515656
v 28.165161 -68.502930 266.465668
v -49.163395 -77.958664 300.907013
v -29.979836 -48.288368 252.423355
v -19.031622 -19.266354 265.406128
v -85.546539 46.542336 354.554199
v -3.142025 -32.613930 407.814331
v -34.825989 -15.769434 407.553223
v -8.825190 -18.159645 406.233154
v 20.170937 -47.982033 390.300293
v -3.861166 -84.457855 281.939697
v 89.304413 4.855284 376.884644
v -23.241190 -74.416664 322.420898
v -66.386566 -30.240183 395.750031
v 69.041656 -14.723183 341.691956
v 60.211384 -44.645462 299.207855
v 80.624405 -62.852890 313.289581
v -66.080338 -71.940727 300.727509
v -74.026093 34.331909 387.477264
v -72.108978 -66.550606 326.739960
v -37.329437 -6.107214 261.786774
v -46.149570 -31.974520 264.409760
v 41.801929 -38.708546 279.501617
v 26.386379 32.892273 352.137421
v 61.898129 32.563293 359.707703
v -67.566376 48.335091 371.092255
v -42.252617 43.816940 343.259155
v -33.116867 34.881538 332.099518
vn 0.0724 -0.9490 0.3070
vn 0.5521 -0.2698 0.7889
vn 0.1438 -0.6444 0.7510
vn 0.1377 -0.9458 0.2942
vn 0.8990 -0.3960 0.1868
vn 0.2884 -0.7241 0.6266
vn -0.0683 0.8964 0.4379
vn 0.0301 -0.9989 0.0350
vn -0.0253 0.1390 0.9900
vn -0.2891 -0.4708 -0.8335
vn -0.6106 -0.6896 0.3895
vn 0.8713 -0.0014 -0.4907
vn -0.6301 -0.3313 -0.7023
vn -0.6139 -0.7416 -0.2703
vn -0.9544 0.1393 -0.2641
vn 0.2455 -0.1063 -0.9635
vn 0.6717 -0.1314 -0.7291
vn -0.4696 0.5833 -0.6628
vn 0.0063 0.7418 0.6706
vn 0.1346 0.9584 -0.2515
vn 0.5041 0.6337 -0.5868
vn 0.1193 0.8286 0.5469
vn 0.0930 0.9757 -0.1983
vn 0.1150 -0.3527 0.9287
vn 0.0451 -0.0606 0.9971
vn -0.0685 -0.6474 0.7590
vn 0.0802 -0.9455 0.3155
vn -0.9441 -0.3240 -0.0613
vn -0.9560 0.0344 0.2913
vn 0.2400 0.2327 0.9425
vn -0.1266 -0.9275 0.3518
vn -0.7786 0.2541 -0.5737
vn -0.7759 0.0346 0.6299
vn 0.5606 0.2947 0.7739
vn 0.8303 0.2283 -0.5084
vn -0.2699 -0.7475 -0.6069
vn -0.0422 0.4047 0.9135
vn 0.9988 0.0495 -0.0024
vn 0.1930 -0.6490 -0.7359
vn 0.2430 -0.9658 -0.0907
vn -0.8772 -0.0568 -0.4768
vn -0.6268 0.6686 0.4000
vn 0.0487 0.8644 -0.5004
vn -0.0178 -0.9039 0.4273
vn -0.9708 -0.1433 0.1926
vn -0.3855 -0.7917 0.4740
vn -0.9759 0.0665 -0.2078
vn 0.1203 0.9880 0.0966
vn -0.6949 0.4705 -0.5438
vn 0.3851 0.8477 0.3649
vn 0.4539 -0.8861 0.0934
vn -0.3487 -0.6163 0.7061
vn 0.3091 0.3657 -0.8779
vn 0.0301 -0.7405 0.6714
vn 0.9000 -0.2758 0.3375
vn -0.0415 0.4219 0.9057
vn 0.4490 -0.6096 -0.6533
vn -0.2731 -0.9498 0.1528
vn -0.1099 -0.1259 -0.9859
vn 0.3463 0.6106 -0.7122
vn -0.8120 0.5778 -0.0823
vn 0.1202 -0.0882 0.9888
vn 0.4013 0.3987 0.8246
vn -0.0091 0.1599 0.9871
vn -0.0245 -0.8956 0.4442
vn 0.1657 -0.9849 -0.0501
vn 0.9516 0.2796 0.1274
vn 0.0670 -0.9479 0.3115
vn -0.6735 -0.3226 0.6650
vn 0.7032 0.4029 -0.5858
vn 0.6636 0.5334 -0.5245
vn 0.6941 -0.6301 -0.3481
vn -0.6339 -0.7563 -0.1618
vn -0.5180 0.3671 0.7726
vn -0.5221 -0.8355 0.1716
vn -0.1037 0.5737 -0.8125
vn -0.6345 0.1708 -0.7538
vn 0.5258 0.5351 -0.6612
vn 0.1736 0.7227 -0.6690
vn 0.5579 0.7385 -0.3786
vn 0.0281 0.9781 0.2064
vn 0.3826 0.9117 -0.1499
vn 0.3108 0.8338 -0.4563
vt 0.641632 0.317632
vt 0.407116 0.520376
vt 0.369883 0.382112
vt 0.584304 0.474965
vt 0.639807 0.377933
vt 0.820876 0.681150
vt 0.371082 0.582291
vt 0.809065 0.620143
vt 0.631676 0.491097
vt 0.273036 0.633643
vt 0.314944 0.584784
vt 0.317570 0.660774
vt 0.508673 0.228982
vt 0.391698 0.349245
vt 0.599334 0.514117
vt 0.421978 0.409632
vt 0.607080 0.531735
vt 0.354852 0.435691
vt 0.636930 0.445206
vt 0.448558 0.635284
vt 0.422062 0.303499
vt 0.590093 0.444657
vt 0.678913 0.310660
vt 0.448150 0.170581
vt 0.412929 0.276014
vt 0.297166 0.176687
vt 0.291557 0.190572
vt 0.339388 0.350456
vt 0.385314 0.661603
vt 0.465659 0.767008
vt 0.410785 0.803000
vt 0.193723 0.294469
vt 0.200712 0.183184
vt 0.096127 0.295882
vt 0.080277 0.419361
vt 0.412665 0.484622
vt 0.651622 0.173915
vt 0.567343 0.153232
vt 0.203506 0.662865
vt 0.169201 0.527822
vt 0.704096 0.373338
vt 0.743882 0.517968
vt 0.794521 0.496175
vt 0.789942 0.582093
vt 0.576520 0.628344
vt 0.740274 0.527488
vt 0.551947 0.581139
vt 0.805805 0.446828
vt 0.681362 0.329607
vt 0.509761 0.650299
vt 0.788074 0.665254
vt 0.491571 0.782125
vt 0.575061 0.825759
vt 0.681362 0.874478
vt 0.830397 0.376570
vt 0.434347 0.727240
vt 0.580197 0.851995
vt 0.672445 0.763480
vt 0.722078 0.838665
vt 0.283186 0.472672
vt 0.412442 0.647681
vt 0.306588 0.692506
vt 0.374221 0.612251
vt 0.734935 0.348228
vt 0.836024 0.458179
vt 0.255258 0.233700
vt 0.554295 0.236116
vt 0.439699 0.153796
vt 0.431165 0.380528
vt 0.907109 0.358278
vt 0.801215 0.281545
vt 0.899375 0.694218
vt 1.007015 0.534706
vt 0.908370 0.658745
vt 0.987157 0.732553
vt 0.910846 0.820933
vt 0.485479 0.719303
vt 0.414806 0.746722
vt 0.471043 0.810011
vt 0.876733 0.367925
vt 0.901062 0.342618
vt 0.840756 0.300486
vt 0.390697 0.673638
vt 0.828015 0.758972
vt 0.134894 0.516646
vt 0.234752 0.442749
vt 0.129917 0.329222
vt 0.895381 0.442677
vt 0.363697 0.529226
vt 0.425228 0.756833
vt 0.373832 0.441447
vt 0.186350 0.208252
vt 0.416119 0.876380
vt 0.879956 0.477840
vt 0.102648 0.494396
vt 0.152662 0.531289
vt 0.134107 0.324698
vt 0.196332 0.756187
vt 0.307027 0.840003
vt 0.228029 0.653906
vt 0.621495 0.242864
vt 0.340463 0.210783
vt 0.721188 0.255862
vt 0.808643 0.317975
vt 0.364353 0.126062
vt 0.870808 0.389850
vt 0.402151 0.478453
vt 0.144338 0.215072
vt 0.442548 0.628681
vt 0.693965 0.761463
vt 0.575876 0.616371
vt 0.820845 0.747047
vt 0.888766 0.516646
vt 0.521744 0.800512
vt 0.862959 0.844138
vt 0.928985 0.695869
vt 0.985475 0.746722
vt 0.935449 0.837907
vt 0.225990 0.240528
vt 0.315492 0.309685
vt 0.404768 0.214394
vt 0.743487 0.159452
vt 0.633806 0.125174
vt 0.255118 0.582225
vt 0.612404 0.156330
vt 0.448150 0.160360
vt 0.856714 0.329222
vt 0.458577 0.816020
vt 0.369883 0.832385
vt 0.261215 0.830037
vt 0.224727 0.769358
vt 0.722078 0.269427
vt 0.193028 0.742194
vt 0.257979 0.827207
vt 0.322045 0.735646
vt 0.955144 0.653047
vt 0.969269 0.426876
vt 0.818067 0.819791
vt 0.366082 0.675130
vt 0.171273 0.534100
vt 0.154845 0.681817
vt 0.208997 0.764201
s 1
usemtl Asteroid_Material_Pixelated.006
f 7/1/7 48/2/48 19/3/19
f 64/4/64 62/5/62 30/6/30
f 60/7/60 21/8/21 78/9/78
f 30/10/30 2/11/2 34/12/34
f 28/13/28 45/14/45 15/15/15
f 63/16/63 62/5/62 64/4/64
f 38/17/38 6/18/6 5/19/5
f 2/11/2 6/18/6 38/17/38
f 38/17/38 55/20/55 2/11/2
f 27/21/27 4/22/4 1/23/1
f 26/24/26 25/25/25 52/26/52
f 52/27/52 25/25/25 9/28/9
f 24/29/24 2/30/2 30/31/30
f 52/27/52 69/32/69 46/33/46
f 45/34/45 69/32/69 29/35/29
f 68/36/68 4/22/4 27/21/27
f 73/37/73 75/38/75 28/13/28
f 74/39/74 33/40/33 9/28/9
f 41/41/41 28/13/28 15/15/15
f 41/41/41 15/15/15 32/42/32
f 71/43/71 78/9/78 21/8/21
f 21/44/21 83/45/83 79/46/79
f 79/46/79 23/47/23 20/48/20
f 17/49/17 78/9/78 71/43/71
f 4/22/4 66/50/66 40/51/40
f 39/52/39 57/53/57 17/54/17
f 7/1/7 50/55/50 20/48/20
f 63/16/63 37/56/37 9/28/9
f 7/57/7 56/58/56 22/59/22
f 48/2/48 81/60/81 19/3/19
f 33/40/33 29/35/29 69/32/69
f 83/61/83 43/62/43 82/63/82
f 62/5/62 54/64/54 24/65/24
f 10/66/10 57/67/57 39/68/39
f 16/69/16 57/67/57 10/66/10
f 6/70/6 65/71/65 51/72/51
f 38/73/38 70/74/70 35/75/35
f 70/74/70 21/8/21 80/76/80
f 35/77/35 55/20/55 38/17/38
f 67/78/67 35/77/35 80/79/80
f 72/80/72 51/81/51 40/82/40
f 8/83/8 66/50/66 68/36/68
f 68/36/68 66/50/66 4/22/4
f 40/51/40 39/52/39 72/84/72
f 77/85/77 59/86/59 13/87/13
f 70/74/70 38/73/38 12/88/12
f 33/89/33 42/90/42 29/91/29
f 13/87/13 10/66/10 14/92/14
f 83/93/83 21/8/21 60/7/60
f 7/57/7 37/56/37 56/58/56
f 20/48/20 50/55/50 80/94/80
f 28/95/28 75/96/75 11/97/11
f 18/98/18 43/99/43 76/100/76
f 60/7/60 43/99/43 83/93/83
f 37/56/37 74/39/74 9/28/9
f 23/47/23 48/2/48 7/1/7 20/48/20
f 55/20/55 67/78/67 34/12/34 2/11/2
f 56/58/56 64/4/64 30/6/30
f 30/6/30 62/5/62 24/65/24
f 3/101/3 62/5/62 25/25/25 26/24/26
f 28/13/28 11/102/11 45/14/45
f 63/16/63 25/25/25 62/5/62
f 54/64/54 3/101/3 1/103/1 65/104/65
f 52/26/52 44/105/44 26/24/26
f 22/59/22 56/58/56 30/6/30
f 24/65/24 54/64/54 65/104/65 6/106/6
f 16/69/16 53/107/53 78/9/78 17/49/17
f 60/7/60 78/9/78 53/107/53
f 69/32/69 45/34/45 11/108/11 46/33/46
f 2/30/2 24/29/24 6/109/6
f 63/16/63 9/28/9 25/25/25
f 49/110/49 32/42/32 15/15/15 47/111/47
f 69/32/69 52/27/52 9/28/9
f 18/112/18 77/113/77 32/42/32 49/110/49
f 47/111/47 61/114/61 49/110/49
f 50/115/50 34/116/34 67/117/67 80/118/80
f 30/6/30 34/116/34 50/115/50 22/59/22
f 46/119/46 31/120/31 44/121/44 52/27/52
f 44/121/44 31/120/31 27/21/27
f 31/120/31 68/36/68 27/21/27
f 15/15/15 45/14/45 29/91/29
f 73/37/73 14/122/14 58/123/58 75/38/75
f 31/120/31 58/124/58 68/36/68
f 58/124/58 8/83/8 68/36/68
f 1/23/1 3/125/3 44/121/44 27/21/27
f 26/126/26 44/121/44 3/125/3
f 14/122/14 73/37/73 41/41/41 13/127/13
f 32/42/32 77/113/77 13/127/13 41/41/41
f 28/13/28 41/41/41 73/37/73
f 65/71/65 1/23/1 40/51/40 51/72/51
f 12/88/12 17/49/17 71/43/71
f 79/46/79 83/45/83 23/47/23
f 1/23/1 4/22/4 40/51/40
f 81/128/81 61/114/61 42/90/42
f 19/129/19 81/130/81 42/131/42
f 22/132/22 50/55/50 7/1/7
f 63/16/63 64/4/64 37/56/37
f 21/44/21 79/46/79 80/94/80
f 20/48/20 80/94/80 79/46/79
f 83/61/83 82/63/82 48/2/48
f 82/63/82 81/60/81 48/2/48
f 9/28/9 33/40/33 69/32/69
f 3/101/3 54/64/54 62/5/62
f 14/133/14 10/134/10 36/135/36
f 36/135/36 8/83/8 58/124/58
f 14/133/14 36/135/36 58/124/58
f 56/58/56 37/56/37 64/4/64
f 16/69/16 17/49/17 57/67/57
f 5/136/5 6/70/6 51/72/51
f 12/88/12 5/137/5 51/81/51 72/80/72
f 35/75/35 70/74/70 80/76/80
f 67/78/67 55/20/55 35/77/35
f 17/54/17 12/138/12 72/84/72 39/52/39
f 10/134/10 39/52/39 36/135/36
f 39/52/39 8/83/8 36/135/36
f 8/83/8 39/52/39 66/50/66
f 53/107/53 59/86/59 76/100/76 60/7/60
f 40/51/40 66/50/66 39/52/39
f 76/100/76 59/86/59 77/85/77
f 12/88/12 71/43/71 21/8/21 70/74/70
f 53/107/53 16/69/16 59/86/59
f 47/111/47 15/15/15 29/91/29 42/90/42
f 12/88/12 38/73/38 5/137/5
f 33/89/33 74/139/74 42/90/42
f 42/90/42 61/114/61 47/111/47
f 61/140/61 81/60/81 82/63/82 43/62/43
f 49/141/49 61/140/61 43/62/43 18/142/18
f 31/120/31 46/119/46 75/96/75 58/124/58
f 13/87/13 59/86/59 10/66/10
f 59/86/59 16/69/16 10/66/10
f 77/85/77 18/98/18 76/100/76
f 7/57/7 19/129/19 37/56/37
f 23/47/23 83/61/83 48/2/48
f 42/131/42 74/39/74 37/56/37 19/129/19
f 11/97/11 75/96/75 46/119/46
f 76/100/76 43/99/43 60/7/60
